# xmcd CD database file
#
# Track frame offsets:
#	182
#	18735
#	50005
#	87152
#	108857
#	144785
#	189205
#	221967
#
# Disc length: 3271 seconds
#
# Revision: 0
# Processed by: cddbd v1.4PL0 Copyright (c) Steve Scherf et al.
# Submitted via: CDex 1.51
#
DISCID=690cc508
DTITLE=Panamaniacs - Santi Debriano Group - Panamaniacs - Santi Debriano Group
DYEAR=1993
DGENRE=Jazz
TTITLE0=Sensacion
TTITLE1=Tio
TTITLE2=Xin Xin Swing
TTITLE3=Mimosa
TTITLE4=Broken Wing
TTITLE5=Darien
TTITLE6=Baladana
TTITLE7=Como Fue
EXTD=YEAR: 1993
EXTT0=
EXTT1=
EXTT2=
EXTT3=
EXTT4=
EXTT5=
EXTT6=
EXTT7=
PLAYORDER=
